<svg width="32" height="32" viewBox="0 0 32 32" fill="none" xmlns="http://www.w3.org/2000/svg">
<circle cx="16" cy="16" r="16" fill="#08261C"/>
<path d="M12.1005 12.106H14.0202L16.012 15.5084L18.0517 12.106H19.9475L14.3802 21.5185L13.5643 19.7303L15.1481 17.0233L12.1005 12.106Z" fill="#E5AB08"/>
<path d="M11.6446 10.7146H13.1324L10.7327 6.6665H9.31688L8.66896 14.1419L5.33337 18.1403L12.7964 24.5974L14.1403 27.9998L17.8598 27.975L19.2276 24.5726L26.6667 18.1155L23.3071 14.2164L22.5872 6.71617H21.3154L18.9157 10.665L20.3555 10.6898L21.4594 9.19968L21.9633 14.8621L24.579 17.9665L20.5235 21.5179L21.6033 18.9102L20.2835 18.2645L16.9959 26.2117H15.0762L11.6926 18.19L10.3967 18.9102L11.5246 21.5924L7.37312 18.0161L10.0368 14.8869L10.5407 9.22452L11.6446 10.7146Z" fill="#CFE0D9"/>
</svg>
