<svg width="32" height="32" viewBox="0 0 32 32" fill="none" xmlns="http://www.w3.org/2000/svg">
<path d="M10.1508 8.15869H13.0304L16.018 13.2623L19.0776 8.15869H21.9213L13.5703 22.2774L12.3465 19.5952L14.7222 15.5347L10.1508 8.15869Z" fill="#E5AB08"/>
<path d="M9.46682 6.07218H11.6985L8.09899 0H5.97525L5.00338 11.213L0 17.2107L11.1946 26.8964L13.2104 32L18.7896 31.9627L20.8414 26.8591L32 17.1735L26.9606 11.3248L25.8808 0.0745058H23.973L20.3735 5.99767L22.5332 6.03492L24.189 3.79977L24.9449 12.2934L28.8684 16.9499L22.7852 22.2771L24.405 18.3655L22.4252 17.397L17.4938 29.3178H14.6142L9.53881 17.2852L7.59505 18.3655L9.28684 22.3888L3.05962 17.0244L7.05512 12.3306L7.81102 3.83702L9.46682 6.07218Z" fill="#CFE0D9"/>
</svg>
