<svg width="20" height="20" viewBox="0 0 20 20" fill="none" xmlns="http://www.w3.org/2000/svg">
<path d="M17.6011 6.81117L19.9809 5.55957L19.9999 12.2944L17.6011 6.81117Z" fill="black"/>
<path d="M16.6872 7.90967L19.7429 15.0787L11.2708 16.2707L16.6872 7.90967Z" fill="black"/>
<path d="M10.671 17.5733L17.1537 16.6367L10.671 19.9828V17.5733Z" fill="black"/>
<path d="M2.81763 16.6113L9.34788 20L9.32884 17.5564L2.81763 16.6113Z" fill="black"/>
<path d="M8.71012 16.2709L0.276001 15.079L3.31266 7.91846L8.71012 16.2709Z" fill="black"/>
<path d="M10.0025 15.9016L15.6701 7.09961H4.33484L10.0025 15.9016Z" fill="black"/>
<path d="M0 12.2897L2.36937 6.75083L0.0134627 5.60693L0 12.2897Z" fill="black"/>
<path d="M16.9823 5.74702L19.3526 4.538L12.8129 1.19189L16.9823 5.74702Z" fill="black"/>
<path d="M4.6073 5.92593H15.3832L10.0238 0L4.6073 5.92593Z" fill="black"/>
<path d="M0.656738 4.50416L3.07465 5.79832L7.20603 1.18359L0.656738 4.50416Z" fill="black"/>
</svg>
