<?xml version="1.0" encoding="UTF-8" standalone="no"?>
<!-- Created with Inkscape (http://www.inkscape.org/) -->

<svg
   version="1.1"
   id="svg1"
   width="587.85822"
   height="568.02051"
   viewBox="0 0 587.85822 568.02051"
   xmlns="http://www.w3.org/2000/svg"
   xmlns:svg="http://www.w3.org/2000/svg">
  <defs
     id="defs1" />
  <g
     id="layer1"
     transform="translate(-218.21509,-226.15018)">
    <path
       style="display:inline;fill:#000000"
       d="m 392.1259,333.93521 h 40.99799 L 366.99811,226.15018 h -39.01422 l -17.85396,199.03862 -91.91484,106.46251 205.65119,171.92704 37.03044,90.59233 102.49497,-0.66126 37.69169,-90.59233 L 806.07332,530.99005 713.49722,427.17257 693.65948,227.4727 h -35.04666 l -66.12579,105.14 39.67547,0.66126 30.41786,-39.67548 13.88642,150.76679 72.0771,82.65724 -111.75257,94.55987 29.7566,-69.43208 -36.36918,-17.1927 -90.59233,211.60251 h -52.90062 l -93.23736,-213.58628 -35.70792,19.17647 31.07911,71.41585 -114.3976,-95.22113 73.39962,-83.31849 13.88641,-150.76679 z"
       id="path1" />
  </g>
</svg>
